<svg width="28" height="28" viewBox="0 0 28 28" fill="none" xmlns="http://www.w3.org/2000/svg">
<path d="M16.3333 3.5V7M22.1666 5.83333L19.8333 8.16667M24.4999 11.6667H20.9999" stroke="#C4261D" stroke-width="1.8" stroke-linecap="round" stroke-linejoin="round"/>
<path d="M10.6843 6.664L10.2153 5.607C9.9073 4.91633 9.75447 4.571 9.52464 4.30617C9.2371 3.9745 8.86185 3.73066 8.44197 3.60267C8.10714 3.5 7.72797 3.5 6.97197 3.5C5.86597 3.5 5.31297 3.5 4.84864 3.71233C4.27583 3.99063 3.83245 4.47915 3.6108 5.07617C3.44397 5.558 3.4918 6.05383 3.58747 7.04667C4.60636 17.605 10.395 23.3936 20.9533 24.4125C21.945 24.5082 22.442 24.556 22.925 24.3892C23.5213 24.1675 24.0094 23.7246 24.2876 23.1525C24.5 22.687 24.5 22.134 24.5 21.028C24.5 20.2708 24.5 19.8928 24.3973 19.558C24.2693 19.1381 24.0255 18.7629 23.6938 18.4753C23.429 18.2455 23.0836 18.0927 22.393 17.7847L21.336 17.3157C20.587 16.9832 20.2136 16.8163 19.8333 16.7802C19.4691 16.7452 19.1019 16.7964 18.7611 16.9295C18.4053 17.0683 18.0903 17.3297 17.4615 17.8547C16.835 18.3762 16.5223 18.6363 16.1396 18.7763C15.772 18.9035 15.3798 18.9439 14.994 18.8942C14.5915 18.8358 14.2823 18.6702 13.6651 18.34C11.7448 17.3133 10.6866 16.2552 9.65997 14.3348C9.3298 13.7165 9.1653 13.4085 9.1058 13.0048C9.05611 12.6198 9.09604 12.2285 9.22247 11.8615C9.36247 11.4777 9.6238 11.165 10.1453 10.5385C10.6703 9.9085 10.9316 9.59467 11.0705 9.23883C11.2035 8.89817 11.2548 8.53067 11.2198 8.16667C11.1836 7.7875 11.0168 7.413 10.6843 6.664Z" stroke="#C4261D" stroke-width="1.8" stroke-linecap="round"/>
</svg>
