<svg width="13" height="11" viewBox="0 0 13 11" fill="none" xmlns="http://www.w3.org/2000/svg">
<path d="M1.14786 0.0126495C1.15306 0.0202392 1.18166 0.0543928 1.20895 0.0872815C1.40785 0.317502 1.55734 0.691927 1.63794 1.16375C1.69124 1.47367 1.69384 1.57107 1.69384 2.75253V3.85304H1.15046C0.653876 3.85304 0.596678 3.85051 0.499181 3.83153C0.345787 3.79991 0.187193 3.71516 0.080597 3.60637C-0.00389986 3.51909 -0.00129995 3.51403 0.00389985 3.7784C0.0103996 3.99724 0.0129995 4.02127 0.0454983 4.14018C0.0974964 4.32866 0.168994 4.46907 0.27689 4.5943C0.423784 4.76633 0.573279 4.86247 0.786471 4.92698C0.831969 4.93963 0.928165 4.94469 1.26875 4.94722L1.69384 4.95354V5.50127V6.05025L1.09456 6.04646L0.492682 6.04266L0.388685 6.00218C0.26519 5.95412 0.209292 5.9187 0.0883967 5.81371L0 5.73655L0.00519981 5.97815C0.0116996 6.20205 0.0129995 6.22735 0.0454983 6.34119C0.158594 6.74345 0.431584 7.03059 0.79167 7.1242C0.881367 7.14823 0.916466 7.14949 1.29215 7.15455L1.69384 7.15961V8.29301C1.69384 8.97735 1.68994 9.48206 1.68344 9.56808C1.67694 9.6465 1.65614 9.79324 1.63794 9.8957C1.55344 10.3675 1.40135 10.723 1.18296 10.9532L1.13876 11H3.33698C4.65123 11 5.63399 10.9949 5.77828 10.9886C6.03177 10.976 6.59725 10.9216 6.72465 10.895C6.76495 10.8874 6.84034 10.876 6.88974 10.8684C6.99504 10.8533 7.16923 10.8178 7.42012 10.7559C7.77371 10.6698 8.0961 10.5623 8.41199 10.4257C8.51078 10.3827 8.79417 10.2423 8.86957 10.198C8.90987 10.1753 8.95796 10.1474 8.97616 10.1386C9.02686 10.112 9.11136 10.0589 9.23485 9.97286C9.29595 9.92985 9.35705 9.88811 9.37005 9.87926C9.42465 9.84384 9.61314 9.69078 9.69894 9.61362C10.0252 9.32141 10.2982 8.99632 10.5101 8.64846C10.54 8.59786 10.579 8.53461 10.5959 8.50805C10.6388 8.43721 10.8156 8.08303 10.8325 8.0299C10.8403 8.00587 10.8507 7.98057 10.8559 7.97551C10.8897 7.9325 11.0847 7.33544 11.1081 7.20515C11.1159 7.16341 11.1198 7.15708 11.1523 7.15076C11.1731 7.14696 11.476 7.14696 11.8257 7.14949C12.525 7.15455 12.525 7.15455 12.6797 7.22413C12.7668 7.26334 12.7928 7.28105 12.889 7.3658C13.0151 7.47585 13.0034 7.49356 12.9956 7.2178C12.9904 7.05589 12.9839 6.95596 12.9722 6.91548C12.928 6.75989 12.9176 6.727 12.8786 6.64857C12.7512 6.37787 12.538 6.18434 12.265 6.092L12.1584 6.05405L11.7243 6.04899L11.2914 6.04266L11.2966 5.89466C11.3018 5.69986 11.3018 5.31405 11.2953 5.11546L11.2901 4.95607L11.8699 4.95354C12.3664 4.95101 12.4587 4.95354 12.5133 4.96746C12.6771 5.01173 12.7876 5.07245 12.9228 5.19262L12.9982 5.26092V5.07371C12.9982 4.85108 12.9865 4.75242 12.9397 4.60568C12.8474 4.30842 12.6654 4.08705 12.4054 3.95044C12.2364 3.86189 12.226 3.85936 11.645 3.85557C11.3044 3.85304 11.1263 3.84798 11.1172 3.84039C11.1094 3.8328 11.1029 3.82015 11.1029 3.81003C11.1029 3.79991 11.0834 3.72022 11.0574 3.6342C10.7532 2.58809 10.1851 1.75701 9.35445 1.14098C9.24135 1.05623 8.96447 0.877875 8.85267 0.817157C8.80977 0.793123 8.76297 0.767824 8.75127 0.760235C8.69668 0.731141 8.38339 0.581877 8.30539 0.550253C8.25859 0.530014 8.19749 0.504715 8.17019 0.494595C7.71131 0.301058 6.94174 0.11764 6.35416 0.0607176C6.25797 0.0518629 6.13057 0.0379485 6.07207 0.0328887C5.80688 0.00379485 5.439 0 3.34997 0C1.58464 0 1.14136 0.00379485 1.14786 0.0126495ZM5.4468 0.560373C5.88618 0.585672 6.15657 0.61856 6.47246 0.693192C7.43702 0.915823 8.1156 1.38638 8.60828 2.17318C8.65378 2.24655 8.84617 2.62856 8.87477 2.70573C9.01126 3.06371 9.07756 3.27622 9.13606 3.55704C9.15036 3.62535 9.16986 3.71642 9.17896 3.75943C9.18806 3.80117 9.19196 3.84039 9.18806 3.84418C9.18156 3.84924 7.87641 3.85177 6.28526 3.85051L3.39287 3.84798L3.38897 2.22252C3.38767 1.32946 3.38897 0.586937 3.39287 0.573022L3.39807 0.548988H4.32234C4.82932 0.548988 5.3363 0.554048 5.4468 0.560373ZM9.31415 4.99149C9.32325 5.04588 9.32325 5.9693 9.31415 6.01483L9.30635 6.04899L6.34896 6.04646L3.39287 6.04266L3.39027 5.50632C3.38767 5.21159 3.39027 4.96619 3.39287 4.96113C3.39677 4.95481 4.65643 4.95101 6.35286 4.95101H9.30635L9.31415 4.99149ZM9.18156 7.16341C9.18806 7.18238 9.15686 7.33797 9.09316 7.59096C9.02036 7.87557 8.92157 8.16272 8.82147 8.37523C8.77207 8.48402 8.64858 8.7193 8.61868 8.76357C8.60438 8.78381 8.56278 8.84832 8.52638 8.90524C8.29239 9.26196 7.9583 9.58705 7.57742 9.82739C7.43832 9.91341 7.15233 10.0601 7.07564 10.0829C7.06004 10.0867 7.04314 10.0943 7.03664 10.0994C7.02754 10.1069 6.90924 10.15 6.77145 10.198C6.51796 10.2853 6.03567 10.3802 5.64829 10.4194C5.3974 10.4434 5.3571 10.4447 4.39124 10.4447H3.39157V8.80405V7.16214L6.26317 7.15708C7.84261 7.15455 9.14386 7.15076 9.15426 7.14823C9.16596 7.14696 9.17766 7.15455 9.18156 7.16341Z" fill="#3F3F3F"/>
</svg>
