<svg width="28" height="28" viewBox="0 0 28 28" fill="none" xmlns="http://www.w3.org/2000/svg">
<path d="M20.7142 16.333C21.41 16.3337 22.0771 16.6105 22.5689 17.1027C23.0606 17.5949 23.3369 18.2622 23.3369 18.958V19.6289C23.3369 20.6719 22.9636 21.681 22.2869 22.4732C20.4552 24.6117 17.6704 25.6675 14.0001 25.6675C10.3297 25.6675 7.54605 24.6117 5.71905 22.4709C5.0431 21.6791 4.67163 20.6723 4.67139 19.6312V18.9569C4.6717 18.2611 4.94823 17.5939 5.44023 17.1019C5.93223 16.6099 6.59943 16.3333 7.29522 16.333H20.7142ZM20.7142 18.083H7.29405C7.06199 18.083 6.83943 18.1752 6.67533 18.3393C6.51124 18.5034 6.41905 18.726 6.41905 18.958V19.6312C6.41905 20.2554 6.64305 20.8597 7.04905 21.3345C8.51089 23.0484 10.8057 23.9175 13.9989 23.9175C17.1944 23.9175 19.4892 23.0484 20.9557 21.3357C21.3625 20.8601 21.5859 20.2547 21.5857 19.6289V18.9569C21.5854 18.7254 21.4934 18.5035 21.3299 18.3397C21.1663 18.1759 20.9457 18.0837 20.7142 18.083ZM14.0001 2.33887C14.7661 2.33887 15.5246 2.48975 16.2324 2.7829C16.9401 3.07606 17.5832 3.50574 18.1248 4.04741C18.6665 4.58909 19.0962 5.23215 19.3894 5.93988C19.6825 6.64761 19.8334 7.40616 19.8334 8.1722C19.8334 8.93824 19.6825 9.69679 19.3894 10.4045C19.0962 11.1123 18.6665 11.7553 18.1248 12.297C17.5832 12.8387 16.9401 13.2683 16.2324 13.5615C15.5246 13.8546 14.7661 14.0055 14.0001 14.0055C12.453 14.0055 10.9692 13.391 9.87526 12.297C8.7813 11.203 8.16672 9.7193 8.16672 8.1722C8.16672 6.6251 8.7813 5.14137 9.87526 4.04741C10.9692 2.95345 12.453 2.33887 14.0001 2.33887ZM14.0001 4.08887C13.4638 4.08887 12.9328 4.19449 12.4374 4.39969C11.942 4.6049 11.4919 4.90567 11.1127 5.28485C10.7335 5.66402 10.4328 6.11416 10.2275 6.60958C10.0223 7.10499 9.91672 7.63597 9.91672 8.1722C9.91672 8.70843 10.0223 9.23941 10.2275 9.73482C10.4328 10.2302 10.7335 10.6804 11.1127 11.0596C11.4919 11.4387 11.942 11.7395 12.4374 11.9447C12.9328 12.1499 13.4638 12.2555 14.0001 12.2555C15.083 12.2555 16.1216 11.8253 16.8874 11.0596C17.6532 10.2938 18.0834 9.25517 18.0834 8.1722C18.0834 7.08923 17.6532 6.05062 16.8874 5.28485C16.1216 4.51907 15.083 4.08887 14.0001 4.08887Z" fill="#00418F"/>
</svg>
