<svg width="28" height="28" viewBox="0 0 28 28" fill="none" xmlns="http://www.w3.org/2000/svg">
<path d="M24.5 24.5002L19.4332 19.4334M19.4332 19.4334C20.2999 18.5667 20.9874 17.5378 21.4564 16.4054C21.9255 15.273 22.1669 14.0593 22.1669 12.8336C22.1669 11.6079 21.9255 10.3942 21.4564 9.26177C20.9874 8.12937 20.2999 7.10044 19.4332 6.23374C18.5665 5.36704 17.5375 4.67953 16.4051 4.21048C15.2727 3.74142 14.059 3.5 12.8333 3.5C11.6076 3.5 10.3939 3.74142 9.26153 4.21048C8.12912 4.67953 7.1002 5.36704 6.2335 6.23374C4.48311 7.98413 3.49976 10.3582 3.49976 12.8336C3.49976 15.309 4.48311 17.683 6.2335 19.4334C7.98388 21.1838 10.3579 22.1671 12.8333 22.1671C15.3087 22.1671 17.6828 21.1838 19.4332 19.4334Z" stroke="#00418F" stroke-width="2" stroke-linecap="round" stroke-linejoin="round"/>
</svg>
