<svg width="50" height="23" viewBox="0 0 50 23" fill="none" xmlns="http://www.w3.org/2000/svg">
<path d="M42.9462 23C47.4267 19.7961 48.8398 13.6294 45.2773 9.10107C35.5992 -3.20058 21.1449 20.2068 10.8531 21.344C-1.28502 22.6851 -4.22859 6.06328 7.10444 2.88229L4.62566 4.50974C4.59308 4.53095 4.56244 4.55582 4.53502 4.58366C0.562209 8.60156 3.49062 15.5118 8.83587 15.7441C14.0998 15.9731 22.0555 7.46666 26.4811 4.37053C32.3057 0.295946 39.9843 -2.33548 45.9862 2.9814C52.5414 8.78817 50.7438 19.5088 42.9465 22.9997L42.9462 23Z" fill="#C4261D"/>
<path d="M42.9475 8.68878C43.1484 8.46836 44.0077 9.43356 44.1661 9.61619C47.109 13.0146 46.6061 18.4051 43.1545 21.2433C37.6316 25.7846 27.3697 20.1422 22.7012 16.2589L27.63 12.2294C30.5175 14.425 34.1484 16.4747 37.8083 16.7498C41.358 17.0166 43.9554 14.0063 43.5535 10.4505C43.4671 9.68481 43.1439 9.356 42.9475 8.68845V8.68878Z" fill="#00418F"/>
<path d="M5.28049 12.8365C2.53399 10.2173 4.20479 4.75128 7.51413 3.40259C11.8782 1.624 17.3796 4.7662 20.8702 7.33962L16.3177 10.9014C12.5117 7.79537 5.13921 5.05721 5.28049 12.8368V12.8365Z" fill="#00418F"/>
</svg>
