<svg width="136" height="92" viewBox="0 0 136 92" fill="none" xmlns="http://www.w3.org/2000/svg">
<g filter="url(#filter0_d_1840_10622)">
<path d="M58.9998 34.9546C59.3264 34.9547 59.6416 35.0867 59.8857 35.3256C60.1297 35.5645 60.2856 35.8937 60.3238 36.2508L60.3332 36.4225V37.8905C60.3328 38.2646 60.2027 38.6245 59.9694 38.8965C59.7361 39.1686 59.4172 39.3323 59.078 39.3542C58.7387 39.3761 58.4047 39.2546 58.144 39.0145C57.8834 38.7744 57.716 38.4337 57.6758 38.0622L57.6665 37.8905V36.4225C57.6665 36.0332 57.807 35.6598 58.057 35.3846C58.3071 35.1093 58.6462 34.9546 58.9998 34.9546ZM67.4172 31.8867L67.5425 32.0085L68.4758 33.036C68.715 33.3002 68.8538 33.6547 68.8641 34.0275C68.8745 34.4002 68.7555 34.7634 68.5315 35.0431C68.3074 35.3228 67.9951 35.4982 67.6579 35.5336C67.3206 35.5689 66.9838 35.4617 66.7158 35.2335L66.5905 35.1117L65.6572 34.0841C65.4271 33.8313 65.2888 33.4946 65.2684 33.1373C65.248 32.7801 65.3469 32.427 65.5464 32.1444C65.7459 31.8618 66.0324 31.6692 66.3518 31.6028C66.6713 31.5364 67.0018 31.6008 67.2812 31.7839L67.4172 31.8867ZM52.3425 32.0085C52.5721 32.2613 52.71 32.5976 52.7303 32.9543C52.7507 33.3111 52.6522 33.6637 52.4532 33.9462L52.3425 34.0841L51.4092 35.1117C51.1692 35.375 50.8472 35.5278 50.5086 35.5392C50.17 35.5506 49.8402 35.4196 49.5861 35.173C49.332 34.9263 49.1728 34.5824 49.1406 34.2112C49.1085 33.8399 49.2059 33.4691 49.4132 33.174L49.5238 33.036L50.4572 32.0085C50.7072 31.7333 51.0463 31.5787 51.3998 31.5787C51.7534 31.5787 52.0925 31.7333 52.3425 32.0085ZM48.3332 23.2113C48.673 23.2117 48.9999 23.3549 49.247 23.6118C49.4941 23.8686 49.6428 24.2197 49.6627 24.5932C49.6826 24.9667 49.5723 25.3344 49.3541 25.6213C49.136 25.9083 48.8266 26.0926 48.4892 26.1368L48.3332 26.1471H46.9998C46.66 26.1467 46.3331 26.0034 46.086 25.7466C45.8389 25.4897 45.6902 25.1387 45.6703 24.7652C45.6503 24.3917 45.7607 24.0239 45.9788 23.737C46.197 23.4501 46.5064 23.2657 46.8438 23.2215L46.9998 23.2113H48.3332ZM70.9998 23.2113C71.3397 23.2117 71.6665 23.3549 71.9136 23.6118C72.1608 23.8686 72.3095 24.2197 72.3294 24.5932C72.3493 24.9667 72.2389 25.3344 72.0208 25.6213C71.8027 25.9083 71.4933 26.0926 71.1558 26.1368L70.9998 26.1471H69.6665C69.3267 26.1467 68.9998 26.0034 68.7527 25.7466C68.5056 25.4897 68.3568 25.1387 68.3369 24.7652C68.317 24.3917 68.4274 24.0239 68.6455 23.737C68.8636 23.4501 69.173 23.2657 69.5105 23.2215L69.6665 23.2113H70.9998ZM51.2838 14.1249L51.4092 14.2467L52.3425 15.2742C52.5816 15.5384 52.7205 15.8929 52.7308 16.2656C52.7411 16.6384 52.6222 17.0016 52.3982 17.2813C52.1741 17.561 51.8618 17.7364 51.5245 17.7717C51.1873 17.8071 50.8505 17.6998 50.5825 17.4717L50.4572 17.3499L49.5238 16.3223C49.2946 16.0694 49.1571 15.7331 49.137 15.3764C49.1169 15.0198 49.2156 14.6674 49.4147 14.3852C49.6138 14.103 49.8995 13.9104 50.2183 13.8436C50.5371 13.7767 50.8671 13.8402 51.1465 14.0221L51.2838 14.1249ZM68.4758 14.2467C68.7054 14.4995 68.8433 14.8358 68.8637 15.1925C68.8841 15.5492 68.7855 15.9019 68.5865 16.1843L68.4758 16.3223L67.5425 17.3499C67.3025 17.6131 66.9806 17.766 66.642 17.7774C66.3034 17.7888 65.9735 17.6578 65.7195 17.4112C65.4654 17.1645 65.3061 16.8206 65.274 16.4493C65.2418 16.0781 65.3393 15.7073 65.5465 15.4122L65.6572 15.2742L66.5905 14.2467C66.8405 13.9715 67.1796 13.8169 67.5332 13.8169C67.8867 13.8169 68.2258 13.9715 68.4758 14.2467ZM58.9998 10C59.3264 10 59.6416 10.132 59.8857 10.371C60.1297 10.6099 60.2856 10.9391 60.3238 11.2962L60.3332 11.4679V12.9358C60.3328 13.31 60.2027 13.6698 59.9694 13.9419C59.7361 14.214 59.4172 14.3777 59.078 14.3996C58.7387 14.4215 58.4047 14.3 58.144 14.0599C57.8834 13.8197 57.716 13.4791 57.6758 13.1076L57.6665 12.9358V11.4679C57.6665 11.0786 57.807 10.7052 58.057 10.4299C58.3071 10.1547 58.6462 10 58.9998 10ZM58.9998 17.3396C60.3061 17.3395 61.5835 17.7619 62.6736 18.5543C63.7636 19.3467 64.6182 20.4742 65.1312 21.7967C65.6442 23.1193 65.793 24.5786 65.5591 25.9934C65.3252 27.4083 64.719 28.7163 63.8156 29.755C62.9122 30.7938 61.7516 31.5175 60.4779 31.8362C59.2041 32.155 57.8734 32.0547 56.6509 31.548C55.4285 31.0412 54.3682 30.1502 53.6018 28.9857C52.8353 27.8212 52.3965 26.4345 52.3398 24.9977L52.3332 24.6792L52.3398 24.3606C52.4144 22.4711 53.1486 20.6861 54.3895 19.378C55.6303 18.0699 57.2819 17.3397 58.9998 17.3396Z" fill="#FBBC05"/>
</g>
<g filter="url(#filter1_d_1840_10622)">
<path d="M52.3623 35.6885C56.4286 35.6872 60.3787 36.9604 63.5855 39.306C66.7923 41.6515 69.0718 44.9349 70.0622 48.6347C72.0861 47.6318 74.3387 47.1031 76.6276 47.0938C78.9165 47.0845 81.1738 47.5948 83.207 48.5812C85.2401 49.5675 86.9887 51.0007 88.3036 52.7584C89.6185 54.5161 90.4605 56.5461 90.758 58.6753C93.2383 59.1177 95.4534 60.4127 96.9694 62.3068C98.4855 64.2009 99.1934 66.5576 98.9545 68.9156C98.7156 71.2736 97.5472 73.4631 95.678 75.0553C93.8087 76.6476 91.3733 77.528 88.8485 77.5241H40.2003C36.9755 77.5265 33.8461 76.4983 31.3275 74.6089C28.809 72.7195 27.0516 70.0817 26.3449 67.1299C25.6382 64.1782 26.0244 61.0887 27.4397 58.3703C28.8551 55.652 31.2153 53.4671 34.1314 52.1755C34.3046 47.7481 36.3011 43.5561 39.7011 40.4813C43.1012 37.4065 47.6398 35.6885 52.3623 35.6885Z" fill="white"/>
</g>
<g filter="url(#filter2_d_1840_10622)">
<path d="M20.7253 24.9902C22.7017 25.6211 24.3422 27.2251 25.1654 29.9594C27.1912 30.1412 29.1153 31.2797 30.1688 32.8395C30.7518 33.7047 31.0898 34.7343 30.9791 35.8193C30.8675 36.9147 30.3101 37.9638 29.2863 38.8762C28.1834 39.8596 26.6418 40.0928 25.4381 40.0928H16.6963C15.8061 40.0931 14.9268 39.8897 14.1207 39.4971C13.3146 39.1045 12.6015 38.5322 12.0319 37.821C10.0554 35.4957 9.63639 33.0265 10.2797 30.8379C10.9122 28.6904 12.5329 26.921 14.4461 25.8441C16.3583 24.7693 18.6629 24.3316 20.7253 24.9902Z" fill="white"/>
</g>
<g filter="url(#filter3_d_1840_10622)">
<path d="M100.333 10.3672C96.9895 10.366 93.7416 11.5945 91.1049 13.8577C88.4682 16.121 86.5939 19.2892 85.7796 22.8592C84.1154 21.8915 82.2634 21.3813 80.3813 21.3723C78.4993 21.3633 76.6433 21.8557 74.9716 22.8075C73.2999 23.7593 71.8621 25.1422 70.781 26.8382C69.6999 28.5342 69.0075 30.493 68.7629 32.5474C66.7235 32.9743 64.9022 34.2239 63.6557 36.0515C62.4091 37.8792 61.8271 40.1532 62.0235 42.4285C62.2199 44.7037 63.1806 46.8164 64.7176 48.3528C66.2545 49.8891 68.257 50.7386 70.3329 50.7349H110.333C112.984 50.7372 115.558 49.7451 117.628 47.922C119.699 46.0989 121.144 43.5536 121.725 40.7054C122.306 37.8573 121.989 34.8761 120.825 32.2532C119.661 29.6303 117.721 27.522 115.323 26.2758C115.181 22.0036 113.539 17.9588 110.743 14.9919C107.948 12.0249 104.216 10.3672 100.333 10.3672Z" fill="white"/>
</g>
<defs>
<filter id="filter0_d_1840_10622" x="35.668" y="0" width="50.6638" height="53.3564" filterUnits="userSpaceOnUse" color-interpolation-filters="sRGB">
<feFlood flood-opacity="0" result="BackgroundImageFix"/>
<feColorMatrix in="SourceAlpha" type="matrix" values="0 0 0 0 0 0 0 0 0 0 0 0 0 0 0 0 0 0 127 0" result="hardAlpha"/>
<feOffset dx="2" dy="2"/>
<feGaussianBlur stdDeviation="6"/>
<feComposite in2="hardAlpha" operator="out"/>
<feColorMatrix type="matrix" values="0 0 0 0 0.984314 0 0 0 0 0.737255 0 0 0 0 0.0196078 0 0 0 0.45 0"/>
<feBlend mode="normal" in2="BackgroundImageFix" result="effect1_dropShadow_1840_10622"/>
<feBlend mode="normal" in="SourceGraphic" in2="effect1_dropShadow_1840_10622" result="shape"/>
</filter>
<filter id="filter1_d_1840_10622" x="16" y="25.6885" width="97" height="65.8359" filterUnits="userSpaceOnUse" color-interpolation-filters="sRGB">
<feFlood flood-opacity="0" result="BackgroundImageFix"/>
<feColorMatrix in="SourceAlpha" type="matrix" values="0 0 0 0 0 0 0 0 0 0 0 0 0 0 0 0 0 0 127 0" result="hardAlpha"/>
<feOffset dx="2" dy="2"/>
<feGaussianBlur stdDeviation="6"/>
<feComposite in2="hardAlpha" operator="out"/>
<feColorMatrix type="matrix" values="0 0 0 0 0 0 0 0 0 0 0 0 0 0 0 0 0 0 0.2 0"/>
<feBlend mode="normal" in2="BackgroundImageFix" result="effect1_dropShadow_1840_10622"/>
<feBlend mode="normal" in="SourceGraphic" in2="effect1_dropShadow_1840_10622" result="shape"/>
</filter>
<filter id="filter2_d_1840_10622" x="0" y="14.6797" width="45" height="39.4131" filterUnits="userSpaceOnUse" color-interpolation-filters="sRGB">
<feFlood flood-opacity="0" result="BackgroundImageFix"/>
<feColorMatrix in="SourceAlpha" type="matrix" values="0 0 0 0 0 0 0 0 0 0 0 0 0 0 0 0 0 0 127 0" result="hardAlpha"/>
<feOffset dx="2" dy="2"/>
<feGaussianBlur stdDeviation="6"/>
<feComposite in2="hardAlpha" operator="out"/>
<feColorMatrix type="matrix" values="0 0 0 0 0 0 0 0 0 0 0 0 0 0 0 0 0 0 0.2 0"/>
<feBlend mode="normal" in2="BackgroundImageFix" result="effect1_dropShadow_1840_10622"/>
<feBlend mode="normal" in="SourceGraphic" in2="effect1_dropShadow_1840_10622" result="shape"/>
</filter>
<filter id="filter3_d_1840_10622" x="51.9861" y="0.367188" width="84.0227" height="64.3682" filterUnits="userSpaceOnUse" color-interpolation-filters="sRGB">
<feFlood flood-opacity="0" result="BackgroundImageFix"/>
<feColorMatrix in="SourceAlpha" type="matrix" values="0 0 0 0 0 0 0 0 0 0 0 0 0 0 0 0 0 0 127 0" result="hardAlpha"/>
<feOffset dx="2" dy="2"/>
<feGaussianBlur stdDeviation="6"/>
<feComposite in2="hardAlpha" operator="out"/>
<feColorMatrix type="matrix" values="0 0 0 0 0 0 0 0 0 0 0 0 0 0 0 0 0 0 0.2 0"/>
<feBlend mode="normal" in2="BackgroundImageFix" result="effect1_dropShadow_1840_10622"/>
<feBlend mode="normal" in="SourceGraphic" in2="effect1_dropShadow_1840_10622" result="shape"/>
</filter>
</defs>
</svg>
